<svg width="32" height="32" viewBox="0 0 32 32" xmlns="http://www.w3.org/2000/svg"><path d="M15.626 8.244c-1.603 1.603-1.23 3.69-1.765 5.72L4.87 4.886c-.195-.206-.477-.336-.785-.336C3.49 4.55 3 5.032 3 5.634v.368c0 3.266 1.41 9.31 5.807 14.152L3.63 25.327c-.84.84-.84 2.204 0 3.043.84.84 2.204.84 3.038 0l5.162-5.167 3.087 3.088 2.665-2.42 4.5 4.5c.834.84 2.2.84 3.04 0 .838-.84.838-2.2 0-3.04L18 18.148c2.05-.563 4.152-.168 5.755-1.77l4.842-4.843c.536-.53.536-1.398 0-1.934s-1.403-.54-1.934 0L22.4 13.853c-.32.32-.84.32-1.16 0-.323-.32-.323-.84 0-1.16l4.26-4.26c.534-.532.534-1.4 0-1.935-.537-.537-1.404-.537-1.935 0l-4.262 4.256c-.32.325-.84.325-1.16 0-.32-.32-.32-.84 0-1.16l4.258-4.26c.54-.532.54-1.4 0-1.935-.53-.536-1.4-.536-1.93 0l-4.84 4.844z" fill="#fff" fill-rule="evenodd"/></svg>